<svg width="590" height="1044" viewBox="0 0 590 1044" fill="none" xmlns="http://www.w3.org/2000/svg">
<g clip-path="url(#clip0_39_37)" filter="url(#filter0_if_39_37)">
<rect width="390" height="844" transform="translate(100 100)" fill="white"/>
<path d="M156 -79L219.986 109.984H427.051L259.532 226.782L323.519 415.766L156 298.968L-11.5188 415.766L52.4677 226.782L-115.051 109.984H92.0135L156 -79Z" fill="#B0C00D"/>
<ellipse cx="536.5" cy="274.5" rx="212.5" ry="372.5" fill="#DDE453"/>
<path d="M353 506L512.349 921.5H193.651L353 506Z" fill="#B0C00D"/>
<path d="M295 484C283.333 475 240.1 449.8 160.5 421C146.333 388.667 104.1 339.5 48.5 401.5C-39.5 476 135.5 510.5 24.5 638C-86.5 765.5 26.5 676 102 772C162.4 848.8 316.167 751.667 385.5 693.5L166 595.5L295 484Z" fill="#FEFEDA" stroke="black"/>
<g style="mix-blend-mode:color-dodge" filter="url(#filter1_d_39_37)">
<rect x="268" y="193" width="187" height="164" fill="#E0E684"/>
</g>
<g style="mix-blend-mode:color-dodge" filter="url(#filter2_d_39_37)">
<rect x="169" y="735" width="187" height="164" fill="#E0E684"/>
</g>
</g>
<defs>
<filter id="filter0_if_39_37" x="0" y="0" width="590" height="1044" filterUnits="userSpaceOnUse" color-interpolation-filters="sRGB">
<feFlood flood-opacity="0" result="BackgroundImageFix"/>
<feBlend mode="normal" in="SourceGraphic" in2="BackgroundImageFix" result="shape"/>
<feColorMatrix in="SourceAlpha" type="matrix" values="0 0 0 0 0 0 0 0 0 0 0 0 0 0 0 0 0 0 127 0" result="hardAlpha"/>
<feOffset dy="4"/>
<feGaussianBlur stdDeviation="12.5"/>
<feComposite in2="hardAlpha" operator="arithmetic" k2="-1" k3="1"/>
<feColorMatrix type="matrix" values="0 0 0 0 1 0 0 0 0 1 0 0 0 0 1 0 0 0 0.25 0"/>
<feBlend mode="normal" in2="shape" result="effect1_innerShadow_39_37"/>
<feGaussianBlur stdDeviation="50" result="effect2_foregroundBlur_39_37"/>
</filter>
<filter id="filter1_d_39_37" x="264" y="193" width="195" height="172" filterUnits="userSpaceOnUse" color-interpolation-filters="sRGB">
<feFlood flood-opacity="0" result="BackgroundImageFix"/>
<feColorMatrix in="SourceAlpha" type="matrix" values="0 0 0 0 0 0 0 0 0 0 0 0 0 0 0 0 0 0 127 0" result="hardAlpha"/>
<feOffset dy="4"/>
<feGaussianBlur stdDeviation="2"/>
<feComposite in2="hardAlpha" operator="out"/>
<feColorMatrix type="matrix" values="0 0 0 0 0 0 0 0 0 0 0 0 0 0 0 0 0 0 0.25 0"/>
<feBlend mode="normal" in2="BackgroundImageFix" result="effect1_dropShadow_39_37"/>
<feBlend mode="normal" in="SourceGraphic" in2="effect1_dropShadow_39_37" result="shape"/>
</filter>
<filter id="filter2_d_39_37" x="165" y="735" width="195" height="172" filterUnits="userSpaceOnUse" color-interpolation-filters="sRGB">
<feFlood flood-opacity="0" result="BackgroundImageFix"/>
<feColorMatrix in="SourceAlpha" type="matrix" values="0 0 0 0 0 0 0 0 0 0 0 0 0 0 0 0 0 0 127 0" result="hardAlpha"/>
<feOffset dy="4"/>
<feGaussianBlur stdDeviation="2"/>
<feComposite in2="hardAlpha" operator="out"/>
<feColorMatrix type="matrix" values="0 0 0 0 0 0 0 0 0 0 0 0 0 0 0 0 0 0 0.25 0"/>
<feBlend mode="normal" in2="BackgroundImageFix" result="effect1_dropShadow_39_37"/>
<feBlend mode="normal" in="SourceGraphic" in2="effect1_dropShadow_39_37" result="shape"/>
</filter>
<clipPath id="clip0_39_37">
<rect width="390" height="844" fill="white" transform="translate(100 100)"/>
</clipPath>
</defs>
</svg>
